# xmcd
#
# Track frame offsets:
#	150
#	20113
#	38967
#	56054
#	74787
#	92198
#	109533
#	122569
#	137806
#	153152
#	168262
#	187442
#	203131
#	217043
#	234744
#	249189
#	269525
#	298188
#
# Disc length: 3979 seconds
#
# Revision: 1
# Processed by: cddbd v1.5.1PL2 Copyright (c) Steve Scherf et al.
# Submitted via: audiograbber 1.83.01
#
DISCID=1e0f8912
DTITLE=Various Artist - cdg5024-01
DYEAR=1900
DGENRE=karaoke
TTITLE0=Shania Twain - Whose Bed Have Your Boots Been Under (Bb)
TTITLE1=Shania Twain - Any Man of Mine (Ab/Bb)
TTITLE2=Shania Twain - Honey I'm Home (E)
TTITLE3=Shania Twain - Man! I Feel Like A Woman (Bb/F)
TTITLE4=Shania Twain - That Don't Impress Me Much (Db)
TTITLE5=Shania Twain - Don't Be Stupid (You Know I Love You) (D)
TTITLE6=Faith Hill - Wild One (B)
TTITLE7=Faith Hill - Let's Go To Vegas (G)
TTITLE8=Faith Hill - It Matters To Me (F#)
TTITLE9=Faith Hill - This Kiss (E/G/E/F)
TTITLE10=Faith Hill - Breathe
TTITLE11=Faith Hill - The Way You Love Me (C/D/E)
TTITLE12=Dixie Chicks - Let 'Er Rip (E)
TTITLE13=Dixie Chicks - Wide Open Space (E)
TTITLE14=Dixie Chicks - I Can Love You Better (D)
TTITLE15=Dixie Chicks - Goodbye Earl (C)
TTITLE16=Dixie Chicks - Sin Wagon (F)
TTITLE17=data - Data Track
EXTD=
EXTT0=
EXTT1=
EXTT2=
EXTT3=
EXTT4=
EXTT5=
EXTT6=
EXTT7=
EXTT8=
EXTT9=
EXTT10=
EXTT11=
EXTT12=
EXTT13=
EXTT14=
EXTT15=
EXTT16=
EXTT17=
PLAYORDER=
